<svg width="130" height="62" viewBox="0 0 130 62" fill="none" xmlns="http://www.w3.org/2000/svg">
<path d="M18.396 29.376C15.984 29.376 14.868 28.404 13.824 26.28L10.08 18.72C9.57596 17.712 9.14396 17.64 7.73996 17.64H6.55196V25.092C6.55196 28.188 6.62396 28.188 9.61196 28.44V29.124H-3.9041e-05V28.44C2.98796 28.188 3.05996 28.188 3.05996 25.092V6.51602C3.05996 3.42002 2.98796 3.42002 -3.9041e-05 3.16802V2.48402H9.57596C15.264 2.48402 18 5.14802 18 9.46802C18 13.104 16.056 15.804 12.672 16.992L16.272 23.76C17.856 26.748 18.756 28.152 21.06 28.44V29.124C20.196 29.268 19.188 29.376 18.396 29.376ZM6.55196 16.668H7.88396C12.024 16.668 14.256 14.94 14.256 10.476C14.256 6.94802 12.996 3.27602 8.45996 3.27602C6.62396 3.27602 6.55196 3.42002 6.55196 6.26402V16.668ZM36.3577 29.124H30.3457V27.036C28.7617 28.26 26.8897 29.484 24.8737 29.484C22.1017 29.484 21.0577 27.288 21.0577 25.452C21.0577 23.256 22.4617 22.176 26.3497 20.88L30.3457 19.548V15.66C30.3457 11.952 29.5177 10.332 27.5377 10.332C23.9377 10.332 26.6737 15.264 23.4337 15.264C22.0657 15.264 21.5977 14.436 21.5977 13.68C21.5977 11.556 25.4857 9.32402 28.8697 9.32402C32.2537 9.32402 33.6577 11.232 33.6577 14.688V24.372C33.6577 28.152 33.8017 28.188 36.3577 28.44V29.124ZM26.6017 27.576C27.9337 27.576 30.0577 26.712 30.3457 24.372V20.808L27.6457 21.672C25.1617 22.5 24.4417 23.616 24.4417 25.056C24.4417 26.316 25.0897 27.576 26.6017 27.576ZM45.6108 28.44V29.124H36.5748V28.44C39.4908 28.224 39.5988 28.152 39.5988 24.372V10.98H37.2948V10.044L39.5988 9.64802V8.64002C39.5988 3.38402 42.5868 2.28882e-05 47.4468 2.28882e-05C50.0388 2.28882e-05 53.7828 0.936022 53.7828 3.38402C53.7828 4.60802 52.9188 5.58002 51.5868 5.58002C48.7788 5.58002 50.2188 1.08002 46.5468 1.08002C44.0268 1.08002 42.9108 3.31202 42.9108 8.13602V9.93602H47.0868C49.8948 9.93602 51.5508 9.57602 53.4948 7.88402L53.7828 8.06402V24.372C53.7828 28.152 53.9268 28.188 56.4828 28.44V29.124H47.4468V28.44C50.3628 28.224 50.4708 28.152 50.4708 24.372V13.212C50.4708 10.98 49.6788 10.98 47.4828 10.98H42.9108V24.372C42.9108 28.152 43.0188 28.224 45.6108 28.44ZM66.5372 28.44V29.124H56.7812V28.44C59.6972 28.224 59.8052 28.152 59.8052 24.372V11.16L57.5012 10.8V10.044L59.8052 9.64802V8.28002C59.8052 3.52802 63.3332 2.28882e-05 66.6812 2.28882e-05C68.3372 2.28882e-05 69.6692 0.792021 69.6692 2.08802C69.6692 2.84402 69.2012 3.74402 67.8692 3.74402C65.6372 3.74402 66.9332 1.26002 65.3492 1.26002C63.9092 1.26002 63.1172 3.31202 63.1172 7.77602V9.57602L67.0412 10.044V10.8L63.1172 11.232V24.372C63.1172 28.152 63.2612 28.188 66.5372 28.44ZM23.292 57.092V37.76L14.22 61.484H12.96V61.448L4.35596 39.308V56.372C4.35596 59.216 5.11196 60.224 7.41596 60.44V61.124H0.071961V60.44C2.37596 60.26 3.09596 59.252 3.09596 56.372V39.848C3.09596 36.68 1.94396 35.384 0.071961 35.168V34.484H6.08396L14.94 56.336L23.292 34.484H29.808V35.168C26.82 35.384 26.784 35.42 26.784 38.516V57.092C26.784 60.188 26.856 60.188 29.844 60.44V61.124H20.268V60.44C23.256 60.224 23.292 60.188 23.292 57.092ZM50.2695 61.124H43.8975V58.352C40.8375 60.584 39.6135 61.484 37.5975 61.484C34.6455 61.484 33.3855 59.504 33.3855 56.84V47.12C33.3855 44.78 32.5215 44.528 30.0015 44.528V43.844C32.8095 43.844 34.4655 43.016 36.4095 41.324L36.6975 41.504V55.148C36.6975 58.388 38.3535 59.468 39.9015 59.468C41.7735 59.468 43.8975 57.524 43.8975 55.976V47.12C43.8975 44.78 43.0335 44.528 40.5135 44.528V43.844C43.3215 43.844 44.9775 43.016 46.9215 41.324L47.2095 41.504V56.372C47.2095 60.152 47.3535 60.188 50.2695 60.44V61.124ZM58.9249 42.368C56.3689 42.368 54.9649 45.464 54.9649 49.676C54.9649 54.788 56.9089 59.432 60.4009 59.432C62.0569 59.432 64.0009 58.316 65.5129 56.732L65.9449 57.308C64.3969 59.18 62.2369 61.484 58.8529 61.484C54.7849 61.484 51.4369 58.172 51.4369 51.872C51.4369 45.896 54.2449 41.324 60.2929 41.324C63.6769 41.324 65.2249 42.692 65.2249 44.024C65.2249 44.996 64.5409 46.04 63.3169 46.04C60.9769 46.04 61.6969 42.368 58.9249 42.368ZM75.0976 60.44V61.124H66.0616V60.44C68.9776 60.224 69.0856 60.152 69.0856 56.372V37.832C69.0856 35.492 68.2216 35.24 65.7016 35.24V34.556C68.5096 34.556 70.1656 33.728 72.1096 32.036L72.3976 32.216V44.456C75.4576 42.224 76.6816 41.324 78.6976 41.324C81.6496 41.324 82.9096 43.304 82.9096 47.408V56.372C82.9096 60.152 83.0536 60.188 85.9696 60.44V61.124H76.9336V60.44C79.4896 60.224 79.5976 60.152 79.5976 56.372V49.1C79.5976 44.42 77.9416 43.34 76.3936 43.34C74.5216 43.34 72.3976 45.284 72.3976 48.632V56.372C72.3976 60.152 72.5416 60.188 75.0976 60.44ZM92.9013 61.484C91.4973 61.484 90.4173 60.944 89.6613 60.944C89.1933 60.944 88.8693 61.16 88.7253 61.844H88.0053L87.2853 54.824L88.1133 54.752C89.1213 58.028 90.0573 60.548 92.6493 60.548C94.2693 60.548 95.8533 59.612 95.8533 57.38C95.8533 52.484 87.5013 52.16 87.5013 46.436C87.5013 43.736 89.3013 41.324 93.1533 41.324C94.4493 41.324 95.0973 41.72 95.8173 41.72C96.2493 41.72 96.5013 41.432 96.7173 40.604H97.3653L97.9053 46.904L97.1493 46.976C96.1413 43.952 95.0253 42.26 93.0813 42.26C91.6053 42.26 90.2733 43.268 90.2733 44.996C90.2733 49.244 98.5893 50.036 98.5893 55.94C98.5893 59.468 95.4573 61.484 92.9013 61.484ZM104.798 38.624C103.43 38.624 102.35 37.58 102.35 36.212C102.35 34.844 103.43 33.764 104.798 33.764C106.166 33.764 107.21 34.844 107.21 36.212C107.21 37.58 106.166 38.624 104.798 38.624ZM109.298 60.44V61.124H100.262V60.44C103.178 60.224 103.286 60.152 103.286 56.372V47.12C103.286 44.78 102.422 44.528 99.9019 44.528V43.844C102.71 43.844 104.366 43.016 106.31 41.324L106.598 41.504V56.372C106.598 60.152 106.742 60.188 109.298 60.44ZM119.028 60.44V61.124H109.992V60.44C112.908 60.224 113.016 60.152 113.016 56.372V47.12C113.016 44.78 112.152 44.528 109.632 44.528V43.844C112.44 43.844 114.096 43.016 116.04 41.324L116.328 41.504V44.456C119.388 42.224 120.612 41.324 122.628 41.324C125.58 41.324 126.84 43.304 126.84 47.408V56.372C126.84 60.152 126.984 60.188 129.9 60.44V61.124H120.864V60.44C123.42 60.224 123.528 60.152 123.528 56.372V49.1C123.528 44.42 121.872 43.34 120.324 43.34C118.452 43.34 116.328 45.284 116.328 48.632V56.372C116.328 60.152 116.472 60.188 119.028 60.44Z" fill="white"/>
</svg>
