<svg width="49" height="27" viewBox="0 0 49 27" fill="none" xmlns="http://www.w3.org/2000/svg">
<path d="M17.96 27C15.96 27 14.96 27 13.824 24.156L10.08 16.596C9.576 15.588 9.144 15.516 7.74 15.516H6.552V22.968C6.552 26.064 6.624 26.064 9.612 26.316V27H0V26.316C2.988 26.064 3.06 26.064 3.06 22.968V4.39198C3.06 1.29598 2.988 1.29598 0 1.04399V0.359985H9.576C15.264 0.359985 18 3.02399 18 7.34399C18 10.98 16.056 13.68 12.672 14.868L16.272 21.636C17.96 25 18.46 26 21.06 26.316V27C21.06 27 18.752 27 17.96 27ZM6.552 14.544H7.884C12.024 14.544 14.256 12.816 14.256 8.35199C14.256 4.82398 12.996 1.15198 8.46 1.15198C6.624 1.15198 6.552 1.29598 6.552 4.13998V14.544Z" fill="white"/>
<path d="M41.68 22.608V3.276L32.608 27H31.348V26.964L22.744 4.824V21.888C22.744 24.732 23.5 25.74 25.804 25.956V27H19.46V25.956C21.96 26.5 21.46 25 21.484 21.888V5.364C21.484 2.196 20.332 0.899999 18.46 0.684V0H24.472L33.328 21.852L41.68 0H48.196V0.684C45.208 0.899999 45.172 0.935999 45.172 4.032V22.608C45.172 25.704 45.244 25.704 48.232 25.956V26.64H38.656V25.956C41.644 25.74 41.68 25.704 41.68 22.608Z" fill="white"/>
</svg>
